<svg width="173" height="341" viewBox="0 0 173 341" fill="none" xmlns="http://www.w3.org/2000/svg">
<path d="M68.3657 11.0853C70.483 3.18324 78.6054 -1.5062 86.5074 0.61115L156.616 19.3968C164.518 21.5142 169.208 29.6365 167.091 37.5386L148.305 107.648C146.188 115.55 138.065 120.239 130.163 118.122L60.0542 99.3361C52.1521 97.2187 47.4627 89.0964 49.58 81.1943L68.3657 11.0853Z" fill="#FFCBC5"/>
<path d="M13.4855 261.681C15.6029 253.779 23.7252 249.09 31.6273 251.207L78.8436 263.858C86.7456 265.976 91.4351 274.098 89.3177 282L76.6662 329.216C74.5488 337.119 66.4265 341.808 58.5244 339.691L11.3081 327.039C3.40604 324.922 -1.28339 316.799 0.833967 308.897L13.4855 261.681Z" fill="#FBB52F"/>
<path d="M131.454 233.484C133.571 225.582 141.694 220.892 149.596 223.01L161.042 226.077C168.944 228.194 173.634 236.316 171.516 244.218L168.449 255.665C166.332 263.567 158.21 268.256 150.308 266.139L138.861 263.072C130.959 260.955 126.27 252.832 128.387 244.93L131.454 233.484Z" fill="#FBB52F"/>
</svg>
